<?xml version="1.0" encoding="UTF-8" standalone="no"?>
<!DOCTYPE svg PUBLIC "-//W3C//DTD SVG 1.1//EN" "http://www.w3.org/Graphics/SVG/1.1/DTD/svg11.dtd">
<svg width="100%" height="100%" viewBox="0 0 60 60" version="1.1" xmlns="http://www.w3.org/2000/svg" xmlns:xlink="http://www.w3.org/1999/xlink" xml:space="preserve" xmlns:serif="http://www.serif.com/" style="fill-rule:evenodd;clip-rule:evenodd;stroke-linejoin:round;stroke-miterlimit:10;">
    <g id="icon-balance-blacks" transform="matrix(0.444444,0,0,1.17532,-168.172,-953.56)">
        <g transform="matrix(2.25,0,0,0.850831,-1326.79,-499.563)">
            <path d="M787.857,1565.28L793.419,1576.41L782.296,1576.41L787.857,1565.28Z" style="fill:rgb(231,68,43);"/>
        </g>
        <g transform="matrix(2.25,0,0,0.850831,-1592.68,14.5801)">
            <text x="910.743px" y="964.078px" style="font-family:'OpenSans', 'Open Sans', sans-serif;font-size:8px;fill:rgb(255,0,0);">1</text>
        </g>
        <g transform="matrix(2.25,0,0,0.850831,-1624.18,14.5801)">
            <text x="910.743px" y="964.078px" style="font-family:'OpenSans', 'Open Sans', sans-serif;font-size:8px;fill:rgb(0,255,95);">1</text>
        </g>
        <g transform="matrix(-4.13318e-16,-0.850831,1.93401,-1.34345e-16,-1460.82,1593.79)">
            <path d="M900.09,1005.77L900.09,966" style="fill:none;stroke:rgb(0,154,255);stroke-opacity:0.47;stroke-width:1px;"/>
        </g>
        <g transform="matrix(6.88864e-16,0.850831,-1.93401,2.23908e-16,2352.59,79.9011)">
            <path d="M900.09,1005.77L900.09,966" style="fill:none;stroke:rgb(0,154,255);stroke-opacity:0.47;stroke-width:1px;"/>
        </g>
        <g transform="matrix(2.25,-2.08393e-16,4.73695e-16,0.731339,-1554.63,116.28)">
            <path d="M900.09,1004.53L900.09,966" style="fill:none;stroke:rgb(0,154,255);stroke-opacity:0.47;stroke-width:1px;"/>
        </g>
        <g transform="matrix(-2.25,1.69157e-15,-7.10543e-16,-3.95762,2446.41,4673.99)">
            <path d="M900.09,973.12L900.09,966" style="fill:none;stroke:rgb(0,154,255);stroke-opacity:0.47;stroke-width:0.28px;"/>
        </g>
    </g>
</svg>
