<?xml version="1.0" encoding="UTF-8" standalone="no"?>
<!DOCTYPE svg PUBLIC "-//W3C//DTD SVG 1.1//EN" "http://www.w3.org/Graphics/SVG/1.1/DTD/svg11.dtd">
<svg width="100%" height="100%" viewBox="0 0 60 60" version="1.1" xmlns="http://www.w3.org/2000/svg" xmlns:xlink="http://www.w3.org/1999/xlink" xml:space="preserve" xmlns:serif="http://www.serif.com/" style="fill-rule:evenodd;clip-rule:evenodd;stroke-linecap:square;stroke-miterlimit:10;">
    <g id="icon-square-attack" transform="matrix(0.444444,0,0,1.17532,-46.0196,-77.33)">
        <g transform="matrix(0.552398,0,0,0.197893,66.7924,-427.108)">
            <rect x="146" y="2575.05" width="89.365" height="90.954" style="fill:none;stroke:rgb(0,154,255);stroke-width:3.72px;"/>
        </g>
        <g transform="matrix(-2.1572,0.0350915,0.0927986,-0.815739,1827.61,1263.03)">
            <g transform="matrix(-1.04495,-0.0449518,-0.0449518,-1.04495,863.947,1504.83)">
                <path d="M53.607,45.271L55.092,55.665L44.697,54.18L53.607,45.271Z" style="fill:rgb(255,0,0);"/>
                <path d="M43.968,44.542C43.968,44.542 47.317,47.891 50.34,50.913" style="fill:none;stroke:rgb(255,0,0);stroke-width:4px;"/>
            </g>
        </g>
        <g transform="matrix(2.15379,-0.0577564,-0.03279,0.816399,-1568.7,-1061.96)">
            <g transform="matrix(1.0458,0.0739853,0.0158835,1.0433,798.312,1437.86)">
                <path d="M7.008,16.048L5.235,5.699L15.667,6.894L7.008,16.048Z" style="fill:rgb(255,0,0);"/>
                <path d="M16.663,16.508L10.117,10.317" style="fill:none;stroke:rgb(255,0,0);stroke-width:4px;"/>
            </g>
        </g>
    </g>
</svg>
