<?xml version="1.0" encoding="UTF-8" standalone="no"?>
<!DOCTYPE svg PUBLIC "-//W3C//DTD SVG 1.1//EN" "http://www.w3.org/Graphics/SVG/1.1/DTD/svg11.dtd">
<svg width="100%" height="100%" viewBox="0 0 60 60" version="1.1" xmlns="http://www.w3.org/2000/svg" xmlns:xlink="http://www.w3.org/1999/xlink" xml:space="preserve" xmlns:serif="http://www.serif.com/" style="fill-rule:evenodd;clip-rule:evenodd;stroke-linecap:square;stroke-miterlimit:10;">
    <g id="icon-flank-center" transform="matrix(0.444444,0,0,1.17532,-46.596,-688.46)">
        <g transform="matrix(0.350407,0,0,0.125531,105.525,293.749)">
            <rect x="146" y="2575.05" width="89.365" height="90.954" style="fill:none;stroke:white;stroke-opacity:0.3;stroke-width:2.93px;"/>
        </g>
        <g transform="matrix(0.350407,0,0,0.125531,73.9777,293.749)">
            <rect x="146" y="2575.05" width="89.365" height="90.954" style="fill:none;stroke:white;stroke-opacity:0.3;stroke-width:2.93px;"/>
        </g>
        <g transform="matrix(0.350407,0,0,0.125531,136.639,293.749)">
            <rect x="146" y="2575.05" width="89.365" height="90.954" style="fill:none;stroke:white;stroke-opacity:0.3;stroke-width:2.93px;"/>
        </g>
        <g transform="matrix(0.350407,0,0,0.125531,105.525,282.332)">
            <rect x="146" y="2575.05" width="89.365" height="90.954" style="fill:rgb(255,189,0);fill-opacity:0.6;stroke:white;stroke-opacity:0.3;stroke-width:2.93px;"/>
        </g>
        <g transform="matrix(0.350407,0,0,0.125531,73.9777,282.332)">
            <rect x="146" y="2575.05" width="89.365" height="90.954" style="fill:none;stroke:white;stroke-opacity:0.3;stroke-width:2.93px;"/>
        </g>
        <g transform="matrix(0.350407,0,0,0.125531,136.639,282.332)">
            <rect x="146" y="2575.05" width="89.365" height="90.954" style="fill:none;stroke:white;stroke-opacity:0.3;stroke-width:2.93px;"/>
        </g>
        <g transform="matrix(0.350407,0,0,0.125531,105.525,270.914)">
            <rect x="146" y="2575.05" width="89.365" height="90.954" style="fill:none;stroke:white;stroke-opacity:0.3;stroke-width:2.93px;"/>
        </g>
        <g transform="matrix(0.350407,0,0,0.125531,73.9777,270.914)">
            <rect x="146" y="2575.05" width="89.365" height="90.954" style="fill:none;stroke:white;stroke-opacity:0.3;stroke-width:2.93px;"/>
        </g>
        <g transform="matrix(0.350407,0,0,0.125531,136.639,270.914)">
            <rect x="146" y="2575.05" width="89.365" height="90.954" style="fill:none;stroke:white;stroke-opacity:0.3;stroke-width:2.93px;"/>
        </g>
    </g>
</svg>
