<?xml version="1.0" encoding="UTF-8" standalone="no"?>
<!DOCTYPE svg PUBLIC "-//W3C//DTD SVG 1.1//EN" "http://www.w3.org/Graphics/SVG/1.1/DTD/svg11.dtd">
<svg width="100%" height="100%" viewBox="0 0 60 60" version="1.1" xmlns="http://www.w3.org/2000/svg" xmlns:xlink="http://www.w3.org/1999/xlink" xml:space="preserve" xmlns:serif="http://www.serif.com/" style="fill-rule:evenodd;clip-rule:evenodd;stroke-linecap:square;stroke-miterlimit:10;">
    <g id="icon-domains-toggle" transform="matrix(0.444444,0,0,1.17532,-312.631,-324.019)">
        <g transform="matrix(0.350407,0,0,0.125531,672.557,-16.3282)">
            <rect x="146" y="2575.05" width="89.365" height="90.954" style="fill:rgb(139,141,143);stroke:white;stroke-opacity:0.3;stroke-width:2.93px;"/>
        </g>
        <g transform="matrix(0.350407,0,0,0.125531,735.218,-16.3282)">
            <rect x="146" y="2575.05" width="89.365" height="90.954" style="fill:rgb(243,167,155);stroke:white;stroke-opacity:0.3;stroke-width:2.93px;"/>
        </g>
        <g transform="matrix(0.350407,0,0,0.125531,703.671,-16.3282)">
            <rect x="146" y="2575.05" width="89.365" height="90.954" style="fill:rgb(139,141,143);stroke:white;stroke-opacity:0.3;stroke-width:2.93px;"/>
        </g>
        <g transform="matrix(0.350407,0,0,0.125531,672.557,-27.7458)">
            <rect x="146" y="2575.05" width="89.365" height="90.954" style="fill:rgb(139,141,143);stroke:white;stroke-opacity:0.3;stroke-width:2.93px;"/>
        </g>
        <g transform="matrix(0.350407,0,0,0.125531,735.218,-27.7458)">
            <rect x="146" y="2575.05" width="89.365" height="90.954" style="fill:rgb(231,68,43);stroke:white;stroke-opacity:0.3;stroke-width:2.93px;"/>
        </g>
        <g transform="matrix(0.350407,0,0,0.125531,703.671,-27.7458)">
            <rect x="146" y="2575.05" width="89.365" height="90.954" style="fill:none;stroke:white;stroke-opacity:0.3;stroke-width:2.93px;"/>
        </g>
        <g transform="matrix(0.350407,0,0,0.125531,672.557,-39.1633)">
            <rect x="146" y="2575.05" width="89.365" height="90.954" style="fill:rgb(243,167,155);stroke:white;stroke-opacity:0.3;stroke-width:2.93px;"/>
        </g>
        <g transform="matrix(0.350407,0,0,0.125531,735.218,-39.1633)">
            <rect x="146" y="2575.05" width="89.365" height="90.954" style="fill:rgb(231,68,43);stroke:white;stroke-opacity:0.3;stroke-width:2.93px;"/>
        </g>
        <g transform="matrix(0.350407,0,0,0.125531,703.671,-39.1633)">
            <rect x="146" y="2575.05" width="89.365" height="90.954" style="fill:rgb(231,68,43);stroke:white;stroke-opacity:0.3;stroke-width:2.93px;"/>
        </g>
    </g>
</svg>
