<?xml version="1.0" encoding="UTF-8" standalone="no"?>
<!DOCTYPE svg PUBLIC "-//W3C//DTD SVG 1.1//EN" "http://www.w3.org/Graphics/SVG/1.1/DTD/svg11.dtd">
<svg width="100%" height="100%" viewBox="0 0 60 60" version="1.1" xmlns="http://www.w3.org/2000/svg" xmlns:xlink="http://www.w3.org/1999/xlink" xml:space="preserve" xmlns:serif="http://www.serif.com/" style="fill-rule:evenodd;clip-rule:evenodd;stroke-linecap:square;stroke-miterlimit:10;">
    <g id="icon-flank-king" transform="matrix(0.444444,0,0,1.17532,-312.404,-687.23)">
        <g transform="matrix(0.350407,0,0,0.125531,703.809,292.703)">
            <rect x="146" y="2575.05" width="89.365" height="90.954" style="fill:none;stroke:white;stroke-opacity:0.3;stroke-width:2.93px;"/>
        </g>
        <g transform="matrix(0.350407,0,0,0.125531,672.262,292.703)">
            <rect x="146" y="2575.05" width="89.365" height="90.954" style="fill:none;stroke:white;stroke-opacity:0.3;stroke-width:2.93px;"/>
        </g>
        <g transform="matrix(0.350407,0,0,0.125531,734.923,292.703)">
            <rect x="146" y="2575.05" width="89.365" height="90.954" style="fill:none;stroke:white;stroke-opacity:0.3;stroke-width:2.93px;"/>
        </g>
        <g transform="matrix(0.350407,0,0,0.125531,703.809,281.285)">
            <rect x="146" y="2575.05" width="89.365" height="90.954" style="fill:none;stroke:white;stroke-opacity:0.3;stroke-width:2.93px;"/>
        </g>
        <g transform="matrix(0.525797,0,0,0.376592,693.642,-376.627)">
            <rect x="146" y="2575.05" width="89.365" height="90.954" style="fill:rgb(255,189,0);fill-opacity:0.5;"/>
        </g>
        <g transform="matrix(0.350407,0,0,0.125531,672.262,281.285)">
            <rect x="146" y="2575.05" width="89.365" height="90.954" style="fill:none;stroke:white;stroke-opacity:0.3;stroke-width:2.93px;"/>
        </g>
        <g transform="matrix(0.350407,0,0,0.125531,734.923,281.285)">
            <rect x="146" y="2575.05" width="89.365" height="90.954" style="fill:none;stroke:white;stroke-opacity:0.3;stroke-width:2.93px;"/>
        </g>
        <g transform="matrix(0.350407,0,0,0.125531,703.809,269.868)">
            <rect x="146" y="2575.05" width="89.365" height="90.954" style="fill:none;stroke:white;stroke-opacity:0.3;stroke-width:2.93px;"/>
        </g>
        <g transform="matrix(0.350407,0,0,0.125531,672.262,269.868)">
            <rect x="146" y="2575.05" width="89.365" height="90.954" style="fill:none;stroke:white;stroke-opacity:0.3;stroke-width:2.93px;"/>
        </g>
        <g transform="matrix(0.350407,0,0,0.125531,734.923,269.868)">
            <rect x="146" y="2575.05" width="89.365" height="90.954" style="fill:none;stroke:white;stroke-opacity:0.3;stroke-width:2.93px;"/>
        </g>
    </g>
</svg>
