<?xml version="1.0" encoding="UTF-8" standalone="no"?>
<!DOCTYPE svg PUBLIC "-//W3C//DTD SVG 1.1//EN" "http://www.w3.org/Graphics/SVG/1.1/DTD/svg11.dtd">
<svg width="100%" height="100%" viewBox="0 0 60 60" version="1.1" xmlns="http://www.w3.org/2000/svg" xmlns:xlink="http://www.w3.org/1999/xlink" xml:space="preserve" xmlns:serif="http://www.serif.com/" style="fill-rule:evenodd;clip-rule:evenodd;stroke-linecap:square;stroke-miterlimit:10;">
    <g id="icon-square-support" transform="matrix(0.444444,0,0,1.17532,-179.02,-77.33)">
        <g transform="matrix(0.552398,0,0,0.197893,366.042,-427.108)">
            <rect x="146" y="2575.05" width="89.365" height="90.954" style="fill:none;stroke:rgb(0,154,255);stroke-width:3.72px;"/>
        </g>
        <g transform="matrix(2.1572,-0.0350915,-0.0927986,0.815739,-1098.38,-1046.18)">
            <g transform="matrix(1.04495,0.0449518,0.0449518,1.04495,755.93,1395.67)">
                <path d="M45.453,54.936L43.968,44.542L54.363,46.027L45.453,54.936Z" style="fill:rgb(0,255,95);"/>
                <path d="M55.092,55.665C55.092,55.665 51.743,52.316 48.72,49.294" style="fill:none;stroke:rgb(0,255,95);stroke-width:4px;"/>
            </g>
        </g>
        <g transform="matrix(-2.1572,0.0350915,0.0927986,-0.815739,2040.05,1229.85)">
            <g transform="matrix(-1.04495,-0.0449518,-0.0449518,-1.04495,821.879,1462.35)">
                <path d="M15.025,6.271L16.51,16.665L6.116,15.18L15.025,6.271Z" style="fill:rgb(0,255,95);"/>
                <path d="M5.387,5.542C5.387,5.542 8.736,8.891 11.759,11.913" style="fill:none;stroke:rgb(0,255,95);stroke-width:4px;"/>
            </g>
        </g>
    </g>
</svg>
